<svg width="22" height="20" viewBox="0 0 22 20" fill="none" xmlns="http://www.w3.org/2000/svg">
<path d="M11.6079 1.01448L13.359 6.38887C13.5602 7.00632 14.1358 7.42418 14.7852 7.42418H20.446C20.9307 7.42418 21.1318 8.0447 20.7393 8.32908L16.1645 11.6437C15.6373 12.0257 15.4167 12.7041 15.6183 13.3231L17.3669 18.6897C17.5169 19.1502 16.9903 19.5336 16.5981 19.2495L12.0126 15.9272C11.4875 15.5467 10.7775 15.5467 10.2524 15.9272L5.6669 19.2495C5.27477 19.5336 4.74812 19.1502 4.89813 18.6897L6.64671 13.3231C6.84839 12.7041 6.62777 12.0257 6.10058 11.6437L1.5257 8.32908C1.1332 8.0447 1.33437 7.42418 1.81906 7.42418H7.47982C8.12921 7.42418 8.70485 7.00631 8.90602 6.38887L10.6571 1.01448C10.807 0.554339 11.458 0.554338 11.6079 1.01448Z" fill="#E5E5E5" stroke="black"/>
</svg>
